# xmcd CD database file
#
# Track frame offsets:
#	150
#	20754
#	45878
#	64647
#	90267
#	130346
#	154163
#	183917
#	211776
#	233425
#	256837
#	286767
#
# Disc length: 4303 seconds
#
# Revision: 0
# Processed by: cddbd v1.5.1PL0 Copyright (c) Steve Scherf et al.
# Submitted via: CDex 1.50beta10
#
DISCID=8c10cd0c
DTITLE=AA.VV. - The Best of Blue Note at Umbria Jazz 1973/2005 - cd1
DYEAR=2005
DGENRE=Jazz
TTITLE0=Charles Mingus - Portrait (live)
TTITLE1=Sam rivers - Downstairs Blues Upstairs
TTITLE2=Thad Jones and Melvin Lewis - A Child Is Born
TTITLE3=Horace Silver - All
TTITLE4=Elvin Jones - My Ship (live)
TTITLE5=Freddie Hubbard - Conga Black
TTITLE6=McCoy Tyner - You Taught My Heart To Sing
TTITLE7=Tony Williams - Life Of The Party
TTITLE8=Kenny Burrell - What Am I Here For ?
TTITLE9=Art Blakey and The Jazz Messengers - Moon River
TTITLE10=Dexter Gordon - 'Round Midnight
TTITLE11=McCoy Tyner and Bobby Hutcherson - Blue Monk
EXTD=YEAR: 2005
EXTT0=
EXTT1=
EXTT2=
EXTT3=
EXTT4=
EXTT5=
EXTT6=
EXTT7=
EXTT8=
EXTT9=
EXTT10=
EXTT11=
PLAYORDER=
